<svg id="Layer_1" data-name="Layer 1" xmlns="http://www.w3.org/2000/svg" viewBox="0 0 512 512"><path d="M31,421H91V331h30v90h30V331h30v90h30V331h30v90h30V331h30v90h30V331h30v90h30V331h30v90h61V331h30V301H0v30H31Z"/><path d="M421,165C421,79.08,355,7.61,271,0V15a164,164,0,0,0,63.84,130.36A164,164,0,0,0,421,179.16Z"/><path d="M241,15V0C157,7.61,91,79.08,91,165v14a162.5,162.5,0,0,0,72.63-24.15A164.3,164.3,0,0,0,241,15Z"/><path d="M421,271V209.4a189.23,189.23,0,0,1-60-14.7V271Z"/><path d="M91,271h60V195a190.26,190.26,0,0,1-60,14.1Z"/><path d="M31,451H482v61H31Z"/></svg>