<svg id="Capa_1" data-name="Capa 1" xmlns="http://www.w3.org/2000/svg" viewBox="0 0 512 512"><path d="M42.49,286.45h427a31.87,31.87,0,1,0,0-63.73h-427a31.87,31.87,0,1,0,0,63.73Z"/><path d="M287.87,154A16.89,16.89,0,0,0,271,170.85v21.87H401.54V170.85A16.89,16.89,0,0,0,384.67,154Z"/><path d="M80.46,170.85A46.92,46.92,0,0,1,127.33,124h96.8A46.67,46.67,0,0,1,256,136.53,46.67,46.67,0,0,1,287.87,124h96.8a46.93,46.93,0,0,1,46.87,46.87v21.87h48.69V89.4a31.87,31.87,0,0,0-31.87-31.87H63.64A31.87,31.87,0,0,0,31.77,89.4V192.72H80.46Z"/><path d="M127.33,154a16.89,16.89,0,0,0-16.87,16.87v21.87H241V170.85A16.89,16.89,0,0,0,224.13,154Z"/><path d="M0,316.45v138H30v-54.7H482v54.7h30v-138Z"/></svg>