<svg id="Layer_1" data-name="Layer 1" xmlns="http://www.w3.org/2000/svg" viewBox="0 0 138.07 139.11"><defs><style>.cls-1{fill:#fff;}</style></defs><path id="Path_12" data-name="Path 12" class="cls-1" d="M0,138.61l.82-.18A.46.46,0,0,0,1,138.3a.38.38,0,0,0,.08-.25v-7.16a.33.33,0,0,0-.08-.25.4.4,0,0,0-.22-.14L0,130.34V130H3.2a6.09,6.09,0,0,1,1.59.16,2.66,2.66,0,0,1,1,.45,1.47,1.47,0,0,1,.48.62,2,2,0,0,1,.13.73,2.06,2.06,0,0,1-.13.78,2,2,0,0,1-.39.63,2.19,2.19,0,0,1-.6.49,3.19,3.19,0,0,1-.79.32,3.74,3.74,0,0,1,1,.17,2.66,2.66,0,0,1,.8.42,2,2,0,0,1,.53.66,1.87,1.87,0,0,1,.19.87,2.48,2.48,0,0,1-.14.89,2,2,0,0,1-.41.67,2.12,2.12,0,0,1-.6.47,3.22,3.22,0,0,1-.74.31,5.82,5.82,0,0,1-.83.17,6.17,6.17,0,0,1-.86,0H0Zm2.88-4.49A4.23,4.23,0,0,0,4,134a1.85,1.85,0,0,0,.71-.33,1.09,1.09,0,0,0,.39-.53,1.74,1.74,0,0,0,.12-.71,2.38,2.38,0,0,0-.13-.88,1.38,1.38,0,0,0-.41-.6A1.83,1.83,0,0,0,4,130.6a3.63,3.63,0,0,0-.93-.1H2.28v3.62Zm.77,4.31A2.38,2.38,0,0,0,5.2,138a1.7,1.7,0,0,0,.48-1.42,2.82,2.82,0,0,0-.14-1A1.57,1.57,0,0,0,5.1,135a1.89,1.89,0,0,0-.76-.35,4.44,4.44,0,0,0-1.09-.11h-1v3.87Z"/><path id="Path_13" data-name="Path 13" class="cls-1" d="M12.12,138.61l.82-.18a.5.5,0,0,0,.22-.13.44.44,0,0,0,.08-.25v-7.16a.38.38,0,0,0-.08-.25.64.64,0,0,0-.22-.14l-.83-.16V130h3.26a5.62,5.62,0,0,1,1.16.09,3.61,3.61,0,0,1,.85.25,2.22,2.22,0,0,1,.59.36,1.87,1.87,0,0,1,.38.46,1.84,1.84,0,0,1,.19.51,1.87,1.87,0,0,1,.05.53,2.29,2.29,0,0,1-.19,1,2.43,2.43,0,0,1-.5.73,2.85,2.85,0,0,1-.65.49,2.7,2.7,0,0,1-.66.27L19,137.9a1.07,1.07,0,0,0,.14.16l.17.18a.83.83,0,0,0,.18.13.42.42,0,0,0,.18.08l.72.16v.3H19.06a1.93,1.93,0,0,1-.48,0,.81.81,0,0,1-.33-.14,1,1,0,0,1-.26-.25l-.28-.36L15.44,135l-1-.2V138a.36.36,0,0,0,.28.39l1,.17v.3h-3.6Zm2.28-4.25h1a2.17,2.17,0,0,0,.87-.16,2.08,2.08,0,0,0,.61-.4,1.68,1.68,0,0,0,.36-.62,2.1,2.1,0,0,0,.13-.74,2.72,2.72,0,0,0-.14-.89,1.46,1.46,0,0,0-.42-.61,1.47,1.47,0,0,0-.65-.35,3,3,0,0,0-.9-.11H14.4Z"/><path id="Path_14" data-name="Path 14" class="cls-1" d="M24.62,138.61l.82-.18a.5.5,0,0,0,.22-.13.44.44,0,0,0,.08-.25v-7.16a.33.33,0,0,0-.08-.25.64.64,0,0,0-.22-.14l-.82-.16V130H28v.3l-.83.17a.38.38,0,0,0-.3.39V138a.33.33,0,0,0,.08.25.4.4,0,0,0,.22.14l.83.17v.3H24.6Z"/><path id="Path_15" data-name="Path 15" class="cls-1" d="M39.27,135.87a.36.36,0,0,0-.09-.24.32.32,0,0,0-.21-.13l-.9-.18V135h3.44v.3l-.82.18a.32.32,0,0,0-.22.13.33.33,0,0,0-.08.25v2.57c-.23.09-.46.18-.7.25A9.78,9.78,0,0,1,38,139a8.65,8.65,0,0,1-.88.05,4,4,0,0,1-1.57-.31,3.92,3.92,0,0,1-1.3-.91,4.2,4.2,0,0,1-.88-1.46,5.85,5.85,0,0,1,0-3.83,4.38,4.38,0,0,1,.89-1.46,4.1,4.1,0,0,1,3-1.29,5.57,5.57,0,0,1,1,0c.29,0,.56.07.82.12a5,5,0,0,1,.67.16l.57.18v2.06H40l-.42-1.15a.39.39,0,0,0-.11-.17l-.16-.11a2.62,2.62,0,0,0-.48-.22c-.2-.07-.39-.13-.59-.18s-.43-.09-.64-.12a4.7,4.7,0,0,0-.65,0,2.18,2.18,0,0,0-1,.25,2.28,2.28,0,0,0-.82.72,3.83,3.83,0,0,0-.55,1.24,6.4,6.4,0,0,0-.19,1.69,7,7,0,0,0,.18,1.71,4.68,4.68,0,0,0,.55,1.35,2.76,2.76,0,0,0,.93.87,2.46,2.46,0,0,0,1.21.32,4.62,4.62,0,0,0,.65-.07,6,6,0,0,0,.61-.15l.5-.18.33-.15Z"/><path id="Path_16" data-name="Path 16" class="cls-1" d="M46.27,138.61l.82-.18a.5.5,0,0,0,.22-.13.38.38,0,0,0,.09-.25v-7.16a.38.38,0,0,0-.09-.25.4.4,0,0,0-.22-.14l-.82-.16V130h3.4v.3l-.83.17a.46.46,0,0,0-.21.13.35.35,0,0,0-.09.26V134h4.31v-3.13a.38.38,0,0,0-.09-.25.6.6,0,0,0-.21-.14l-.83-.16V130h3.41v.3l-.82.17a.32.32,0,0,0-.22.13.41.41,0,0,0-.09.26V138a.38.38,0,0,0,.09.25.37.37,0,0,0,.22.14l.82.17v.3h-3.4v-.3l.82-.17a.38.38,0,0,0,.21-.14.38.38,0,0,0,.09-.25v-3.49h-4.3V138a.38.38,0,0,0,.08.25.48.48,0,0,0,.23.13l.82.17v.3h-3.4Z"/><path id="Path_17" data-name="Path 17" class="cls-1" d="M61.91,138.61l1-.18a.42.42,0,0,0,.3-.38v-7.53H61.1a.22.22,0,0,0-.19.06.51.51,0,0,0-.09.16l-.46,1.43H60V130h7.45v2.13h-.34l-.48-1.41a.51.51,0,0,0-.09-.16.18.18,0,0,0-.17-.06H64.3V138a.38.38,0,0,0,.31.38l1,.18v.3H61.89Z"/><path id="Path_18" data-name="Path 18" class="cls-1" d="M80,138.61l.82-.18a.5.5,0,0,0,.22-.13.38.38,0,0,0,.09-.25v-7.16a.38.38,0,0,0-.09-.25.4.4,0,0,0-.22-.14l-.82-.16V130h3.4v.3l-.82.17a.4.4,0,0,0-.31.39V134h4.31v-3.13a.38.38,0,0,0-.09-.25.6.6,0,0,0-.21-.14l-.82-.16V130h3.42v.3l-.83.17a.32.32,0,0,0-.22.13.5.5,0,0,0-.08.26V138a.38.38,0,0,0,.3.39l.83.17v.3h-3.4v-.3l.82-.17a.38.38,0,0,0,.21-.14.38.38,0,0,0,.09-.25v-3.49H82.28V138a.38.38,0,0,0,.09.25.5.5,0,0,0,.22.13l.83.17v.3H80Z"/><path id="Path_19" data-name="Path 19" class="cls-1" d="M98,139.11a4.21,4.21,0,0,1-1.75-.35,3.48,3.48,0,0,1-1.28-1,4.29,4.29,0,0,1-.78-1.46,6.28,6.28,0,0,1-.26-1.88,5.51,5.51,0,0,1,.28-1.8,4.22,4.22,0,0,1,.82-1.48,3.84,3.84,0,0,1,3-1.34,4.05,4.05,0,0,1,1.81.37,3.53,3.53,0,0,1,1.27,1,4,4,0,0,1,.75,1.47,6,6,0,0,1,.25,1.78,6.09,6.09,0,0,1-.1,1.13,4.89,4.89,0,0,1-.32,1.07,3.91,3.91,0,0,1-.55,1,3.75,3.75,0,0,1-1.79,1.3A4.12,4.12,0,0,1,98,139.11Zm.12-.47a2.23,2.23,0,0,0,1.18-.3,2.77,2.77,0,0,0,.85-.82,4.42,4.42,0,0,0,.5-1.26,6.35,6.35,0,0,0,.17-1.57,8.11,8.11,0,0,0-.17-1.77,4.25,4.25,0,0,0-.55-1.38,2.61,2.61,0,0,0-.91-.9,2.5,2.5,0,0,0-1.31-.32,2.15,2.15,0,0,0-1.24.32,2.56,2.56,0,0,0-.82.88,3.94,3.94,0,0,0-.48,1.23,7.46,7.46,0,0,0-.15,1.49,9.35,9.35,0,0,0,.17,1.75,4.37,4.37,0,0,0,.54,1.39,2.7,2.7,0,0,0,.91.93,2.62,2.62,0,0,0,1.31.35Z"/><path id="Path_20" data-name="Path 20" class="cls-1" d="M109,138.61l1-.18a.36.36,0,0,0,.21-.13.38.38,0,0,0,.09-.25v-7.53h-2.06a.22.22,0,0,0-.19.06.51.51,0,0,0-.09.16l-.46,1.43h-.34V130h7.45v2.13h-.34l-.47-1.42a.51.51,0,0,0-.09-.16.19.19,0,0,0-.17-.07h-2.09V138a.38.38,0,0,0,.31.38l1,.18v.3H109Z"/><path id="Path_21" data-name="Path 21" class="cls-1" d="M119.43,138.61l.82-.18a.46.46,0,0,0,.21-.13.38.38,0,0,0,.09-.25v-7.16a.38.38,0,0,0-.09-.25.38.38,0,0,0-.21-.14l-.82-.16V130h6.46v2.09h-.35l-.47-1.37a.42.42,0,0,0-.09-.16.21.21,0,0,0-.17-.06h-3.1V134h2a.33.33,0,0,0,.19-.06.38.38,0,0,0,.09-.15l.36-1h.32v3h-.32l-.36-1a.56.56,0,0,0-.09-.17.26.26,0,0,0-.19-.06h-2v3.89h3.65a.28.28,0,0,0,.18-.06.51.51,0,0,0,.09-.16l.41-1.56h.36v2.27h-7Z"/><path id="Path_22" data-name="Path 22" class="cls-1" d="M131.42,138.61l.83-.18a.46.46,0,0,0,.21-.13.38.38,0,0,0,.09-.25v-7.16a.38.38,0,0,0-.09-.25.38.38,0,0,0-.21-.14l-.83-.16V130h3.45v.3l-.86.17a.32.32,0,0,0-.22.13.41.41,0,0,0-.09.26v7.54h3.41a.18.18,0,0,0,.08-.09.21.21,0,0,0,0-.11v-.11l.49-1.7H138v2.53h-6.65Z"/><path id="Path_23" data-name="Path 23" class="cls-1" d="M58.53,81.76l-7.41,31.59L64.24,82.58a20.13,20.13,0,0,1-5-1.66Z"/><path id="Path_24" data-name="Path 24" class="cls-1" d="M47.84,67l-1,.07L18.27,81.2l27.37-8.07,3.52-2.39A20.51,20.51,0,0,1,47.84,67Z"/><path id="Path_25" data-name="Path 25" class="cls-1" d="M47.73,66.62l-.95.48,1-.06A.68.68,0,0,0,47.73,66.62Z"/><path id="Path_26" data-name="Path 26" class="cls-1" d="M64.08,41.6V40.19L52.19,11.28l5.74,25.95,3.32,5.17A19.83,19.83,0,0,1,64.08,41.6Z"/><path id="Path_27" data-name="Path 27" class="cls-1" d="M64.06,5.51v36.1l.55-.08a20.05,20.05,0,0,1,3.46-.31h.67Z"/><path id="Path_28" data-name="Path 28" class="cls-1" d="M50.11,51.54l-.2-.16L18.12,40.69,37.06,51l12.11,2.3C49.48,52.66,49.78,52.1,50.11,51.54Z"/><path id="Path_29" data-name="Path 29" class="cls-1" d="M50.15,51.48l-.24-.08.19.16Z"/><path id="Path_30" data-name="Path 30" class="cls-1" d="M55.65,45.36,54.5,43,21.19,13.3,46,41.82l8,4.9C54.53,46.24,55.08,45.79,55.65,45.36Z"/><path id="Path_31" data-name="Path 31" class="cls-1" d="M46,41.82,19.77,25.67,49.91,51.38l.25.08a19.77,19.77,0,0,1,1.9-2.72,20.36,20.36,0,0,1,1.94-2Z"/><path id="Path_32" data-name="Path 32" class="cls-1" d="M58.78,80.75l-.24,1,.63-.83Z"/><path id="Path_33" data-name="Path 33" class="cls-1" d="M52.22,75.61l-.5.26L22.88,108.81,50.72,83.48l3.21-6.06A24.38,24.38,0,0,1,52.22,75.61Z"/><path id="Path_34" data-name="Path 34" class="cls-1" d="M55.76,78.89c-.65-.47-1.27-1-1.87-1.5l-3.21,6L36.73,110l21.8-28.26.24-1A21.14,21.14,0,0,1,55.76,78.89Z"/><path id="Path_35" data-name="Path 35" class="cls-1" d="M49.68,71.89c-.21-.38-.39-.79-.57-1.18l-3.52,2.38L7,99.36,51.71,75.87l.36-.42A20.33,20.33,0,0,1,49.68,71.89Z"/><path id="Path_36" data-name="Path 36" class="cls-1" d="M52.07,75.45l-.36.42.5-.26Z"/><path id="Path_37" data-name="Path 37" class="cls-1" d="M47.54,58.62l-.71-.22L1.11,60.62,37.86,63l9.43-2.21c.05-.74.13-1.47.25-2.19Z"/><path id="Path_38" data-name="Path 38" class="cls-1" d="M47.31,63.59c0-.51-.08-1-.08-1.55a9,9,0,0,1,.06-1.27L37.86,63,11.92,69l34.86-2,.95-.4A19.13,19.13,0,0,1,47.31,63.59Z"/><path id="Path_39" data-name="Path 39" class="cls-1" d="M37.05,51,.39,44,46.83,58.4h.72c.1-.52.21-1,.35-1.54a20.66,20.66,0,0,1,1.29-3.58Z"/><path id="Path_40" data-name="Path 40" class="cls-1" d="M47.57,58.38h-.72l.7.21Z"/><path id="Path_41" data-name="Path 41" class="cls-1" d="M57.93,37.23,34,0,54.5,43l1.15,2.4c.28-.21.55-.43.85-.62a20.74,20.74,0,0,1,2.76-1.55c.66-.3,1.33-.57,2-.81Z"/><path id="Path_42" data-name="Path 42" class="cls-1" d="M79,41.09l7-29.72L73,41.82a20.71,20.71,0,0,1,4.25,1.52Z"/><path id="Path_43" data-name="Path 43" class="cls-1" d="M88,55.84l1-.06,30.9-15.24L97.73,47.06,87.37,54.13A17.52,17.52,0,0,1,88,55.84Z"/><path id="Path_44" data-name="Path 44" class="cls-1" d="M74,82.09v2.45l11.9,28.92L80.14,87.51l-4-6.18A20.14,20.14,0,0,1,74,82.09Z"/><path id="Path_45" data-name="Path 45" class="cls-1" d="M74,84.54V82.09c-.29.09-.61.16-.91.23a20.71,20.71,0,0,1-3.83.57L74,119.23Z"/><path id="Path_46" data-name="Path 46" class="cls-1" d="M87,70.93,120,82,101,71.77,87.68,69.25C87.47,69.82,87.2,70.38,87,70.93Z"/><path id="Path_47" data-name="Path 47" class="cls-1" d="M81.72,77.87l1.86,3.9,33.36,29.65L92.07,82.91l-9.49-5.83C82.31,77.35,82,77.61,81.72,77.87Z"/><path id="Path_48" data-name="Path 48" class="cls-1" d="M86.5,71.92a23,23,0,0,1-1.71,2.65,21.93,21.93,0,0,1-2.21,2.51l9.49,5.83,26.24,16.15Z"/><path id="Path_49" data-name="Path 49" class="cls-1" d="M84.3,49l.44-.23L115.2,14,85.54,41l-3.16,6A23,23,0,0,1,84.3,49Z"/><path id="Path_50" data-name="Path 50" class="cls-1" d="M79,41.09l-1.75,2.25,1.08.56a23,23,0,0,1,2.27,1.52c.63.48,1.22,1,1.79,1.5l3.16-6,13.78-26.2Z"/><path id="Path_51" data-name="Path 51" class="cls-1" d="M84.74,48.71,84.3,49a.76.76,0,0,0,.11.14,17.29,17.29,0,0,1,1.14,1.56,22.78,22.78,0,0,1,1.83,3.45L97.73,47l33.39-22.7Z"/><path id="Path_52" data-name="Path 52" class="cls-1" d="M89,62.4l48-2.32-30-2L89,62.34Z"/><path id="Path_53" data-name="Path 53" class="cls-1" d="M89,55.78l-1,.06a1.56,1.56,0,0,0,.1.37,6.66,6.66,0,0,0,.17.68A20.65,20.65,0,0,1,89,62.08v.26l18-4.23,19.18-4.51Z"/><path id="Path_54" data-name="Path 54" class="cls-1" d="M88.89,63.59a11,11,0,0,1-.17,1.52,20.42,20.42,0,0,1-1,4.15L101,71.77l36.64,7Z"/><path id="Path_55" data-name="Path 55" class="cls-1" d="M83.58,81.76l-1.86-3.9a12,12,0,0,1-1.34,1,21.91,21.91,0,0,1-4.21,2.4l4,6.23,23.91,37.23Z"/><path id="Path_56" data-name="Path 56" class="cls-1" d="M88.65,62.41H89v-.06Z"/><path id="Path_57" data-name="Path 57" class="cls-1" d="M61.1,70.34,62.78,70a.77.77,0,0,0,.43-.28.68.68,0,0,0,.18-.49V54.56a.72.72,0,0,0-.18-.5.77.77,0,0,0-.43-.28l-1.68-.35v-.62h6.56a13.07,13.07,0,0,1,3.24.34,5.48,5.48,0,0,1,2,.9,3.07,3.07,0,0,1,1,1.28,4.28,4.28,0,0,1,.27,1.5,4.4,4.4,0,0,1-.27,1.57A4.33,4.33,0,0,1,73,59.7a4.62,4.62,0,0,1-1.24,1,7,7,0,0,1-1.6.65,6.85,6.85,0,0,1,2,.36,5.35,5.35,0,0,1,1.62.89A4.31,4.31,0,0,1,75,64a3.89,3.89,0,0,1,.4,1.77,5.22,5.22,0,0,1-.3,1.84,4.66,4.66,0,0,1-2,2.36,6.89,6.89,0,0,1-1.51.63,9.64,9.64,0,0,1-1.7.33,14.72,14.72,0,0,1-1.76.1h-7ZM67,61.17a9.28,9.28,0,0,0,2.23-.23,3.74,3.74,0,0,0,1.45-.69,2.37,2.37,0,0,0,.8-1.07,3.93,3.93,0,0,0,.24-1.44,5.55,5.55,0,0,0-.26-1.81,2.93,2.93,0,0,0-.82-1.23A3.09,3.09,0,0,0,69.3,54a7.52,7.52,0,0,0-1.89-.23h-1.6v7.4ZM68.54,70a4.92,4.92,0,0,0,3.16-.86,3.54,3.54,0,0,0,1-2.85,5.64,5.64,0,0,0-.29-2,2.78,2.78,0,0,0-.9-1.29A3.87,3.87,0,0,0,70,62.3a10.41,10.41,0,0,0-2.23-.22h-2V70Z"/></svg>