<svg id="Layer_1" data-name="Layer 1" xmlns="http://www.w3.org/2000/svg" viewBox="0 0 436.03 381.32"><defs><style>.cls-1{fill:#4b73f0;}</style></defs><path class="cls-1" d="M433.73,79.19a334.59,334.59,0,0,0-432.4.08L0,79.38v58.13a9.7,9.7,0,0,0,9.7,9.7H75.86A9.7,9.7,0,0,0,84.93,141l23.82-62.54a335.95,335.95,0,0,1,218.67.36L351.11,141a9.69,9.69,0,0,0,9.06,6.25h66.16a9.7,9.7,0,0,0,9.7-9.7V79.38Z"/><path class="cls-1" d="M271.17,108.29H164.86a47.91,47.91,0,0,0-41.52,24L26,301.48v52.4A27.45,27.45,0,0,0,53.4,381.32H382.64a27.45,27.45,0,0,0,27.44-27.44v-52.4L312.69,132.3A47.91,47.91,0,0,0,271.17,108.29ZM218,300.05a61.49,61.49,0,1,1,61.48-61.48A61.48,61.48,0,0,1,218,300.05Z"/></svg>