<svg id="Capa_1" data-name="Capa 1" xmlns="http://www.w3.org/2000/svg" viewBox="0 0 512 512"><path d="M436.65,211.52V185.81H409.8v-30h26.85V50a20,20,0,1,0-40.08,0V85.76h-30V50a50,50,0,1,1,100.08,0V211.52H468a44,44,0,0,1,44,44v16.84H280.84V211.52Z"/><path d="M280.85,402.67H121.53V302.34H30.6v35.43a137.9,137.9,0,0,0,73.47,121.82L94.41,482H60.35v30h53.79L132,470.66a137.28,137.28,0,0,0,36.42,4.9H343.61a137.28,137.28,0,0,0,36.42-4.9L397.87,512h53.78V482h-34l-9.67-22.41A137.9,137.9,0,0,0,481.4,337.77V302.34H280.84Z"/><path d="M151.53,211.52h99.32V372.67H151.53Z"/><path d="M44,211.52a44,44,0,0,0-44,44v16.84H121.53V211.52Z"/></svg>