<svg id="Layer_1" data-name="Layer 1" xmlns="http://www.w3.org/2000/svg" viewBox="0 0 512 512"><path d="M447.93,117.73a12.42,12.42,0,0,0-18.77-2.49C406.57,135.69,404.89,137.09,399,143l-32.16-4.43-3.26,8.83a36,36,0,0,1,1.57,27.29l6.41.88A250.22,250.22,0,0,0,349.67,213a212.82,212.82,0,0,0,5.58,60.4,226.45,226.45,0,0,1,44.4-93.95l12.84,1.77a18,18,0,0,0,14.86-30.86l18.21-16.48A12.62,12.62,0,0,0,447.93,117.73Z"/><path d="M352.06,102.66A12.39,12.39,0,0,0,336.13,110l-6.28,17a35.9,35.9,0,0,1,23.59,7.75l6-16.12A12.41,12.41,0,0,0,352.06,102.66Z"/><path d="M369.79,470.72a46.77,46.77,0,0,0,12.12-85.55l-30.82-78.79a226.48,226.48,0,0,1-14.17-107.89c-1.28.21.22,0-25.22,2.88A251.21,251.21,0,0,0,328,315.42l24.44,62.5-15.73-2.1L322,338.39l-3.79,35-45.93-6.1a38.36,38.36,0,0,1-14,13.43l7.67.37A14.64,14.64,0,0,1,280,394.7,14.4,14.4,0,0,1,265,409.83l-50.71-2.45a14.39,14.39,0,0,1-13.68-15.07c.34-6.91,5.68-14.13,16.4-13.61a39.11,39.11,0,0,1-15-20.78l-25.21-3.35,12.44-39.08a20.91,20.91,0,0,0,.88-8.39l-4.25-42.8c-39.84-7.43-38.68-7-42.73-8.49l5.08,51.13-12.85,40.37a78.28,78.28,0,0,0-47.65,136L76.09,494.84A10.12,10.12,0,0,0,74.91,508a9.92,9.92,0,0,0,15,1.12l14.27-14.27a77.93,77.93,0,0,0,36.27,8.91c11.67,0,204.62-29.82,204.62-29.82L379.67,509a9.93,9.93,0,1,0,14.15-13.93ZM187.18,427.87A46.8,46.8,0,1,1,138,378.7,47,47,0,0,1,187.18,427.87Z"/><path d="M276.35,4.53a39.74,39.74,0,1,0,18.91,48.91A39.75,39.75,0,0,0,276.35,4.53Z"/><path d="M329.08,145.06,267.18,152l-37.54-44.72,37.73,26.58,45.34-5.09S246,99.52,205.8,81.73c-12.26-5.42-27.23,2.28-32.71,16.7-3.93,10.37-34.85,91.77-39.88,105-5.44,14.31,0,29.89,12.68,34.71,4.24,2.34.11,1.14,81.62,16.35l-9.74,90a21.61,21.61,0,0,0,43,4.65l11.89-109.89a21.61,21.61,0,0,0-17.52-23.57l-34.29-6.39,8.58-20.72c-2.92-6.19-24.58-52.25-27.34-58.13l43.74,52.12a18,18,0,0,0,15.8,6.32l71-8c9.18-1,16.49-8.66,16.47-17.9A18,18,0,0,0,329.08,145.06Z"/></svg>