<svg id="Layer_1" data-name="Layer 1" xmlns="http://www.w3.org/2000/svg" viewBox="0 0 223.84 139.17"><defs><style>.cls-1{fill:#925c3d;}</style></defs><path class="cls-1" d="M0,124.3a14.87,14.87,0,0,0,14.87,14.87H209a14.87,14.87,0,0,0,14.87-14.87V44H0ZM83.76,63.61a25.51,25.51,0,0,1,23.91,16.63h1.54l5.35-5.35,5.35,5.35H132l5.35-5.35,5.35,5.35h10.92L159,74.89l5.35,5.35h8.88v9.68l-12.48,9.69H107a25.49,25.49,0,1,1-23.22-36Z"/><path class="cls-1" d="M70.75,94.26a5.17,5.17,0,1,0-5.17-5.17A5.16,5.16,0,0,0,70.75,94.26Z"/><path class="cls-1" d="M209,0H14.87A14.87,14.87,0,0,0,0,14.87V29H223.84V14.87A14.87,14.87,0,0,0,209,0Z"/></svg>