<svg id="Layer_1" data-name="Layer 1" xmlns="http://www.w3.org/2000/svg" viewBox="0 0 267.33 266.61"><path d="M8.67,260.44a6.18,6.18,0,0,0,6.18,6.17H252.48a6.17,6.17,0,0,0,6.17-6.17h0V158.26H8.67Z"/><path d="M263.32,125.88H250a28.89,28.89,0,0,0-24.84-25.09V91.72h4.32a3.8,3.8,0,1,0,0-7.6H213.19a3.8,3.8,0,0,0,0,7.6h4.32v9.07a28.89,28.89,0,0,0-24.84,25.09h-9.19V113.23a38.14,38.14,0,0,0-35.63-38L133.66,89.36,119.48,75.18a38.14,38.14,0,0,0-35.63,38.05v12.65H4a4,4,0,0,0-4,4H0V146.1a4,4,0,0,0,4,4H263.32a4,4,0,0,0,4-4V129.89a4,4,0,0,0-4-4Z"/><circle cx="133.66" cy="33.51" r="33.51"/></svg>