<svg id="Layer_1" data-name="Layer 1" xmlns="http://www.w3.org/2000/svg" viewBox="0 0 493.49 438.44"><defs><style>.cls-1{fill:#fc7c29;}</style></defs><path class="cls-1" d="M64.67,364.92a25.8,25.8,0,0,0-1,37.48l27.45,27.45a25.8,25.8,0,0,0,37.48-1L227.46,318.3l-48-56.14Z"/><path class="cls-1" d="M420.3,191.74s8.79-8.72,10.63-11.08l59-75.58a16.85,16.85,0,0,0-1.37-22.29h0a16.86,16.86,0,0,0-23-.79l-75,65.41a4,4,0,0,1-5.61-5.54l64-75.13a15.76,15.76,0,0,0-1.57-22,16.06,16.06,0,0,0-21,.1l-74.8,63.77a3.95,3.95,0,0,1-5.54-5.6l65.4-75A16.86,16.86,0,0,0,388.4,3.57l-75.57,59c-2.36,1.85-11.09,10.64-11.09,10.64A68.25,68.25,0,0,0,293.69,160l-43.11,38.58L46.6,8.26a27.14,27.14,0,0,0-37.7.66,24.38,24.38,0,0,0-2.33,2.32l-1.4,1.7c-2.66,3.48-5.68,9-5.1,15.56,1,11.42-3.11,95.18,45,143.32C89.87,216.58,146.17,218,181.61,218.56l20.25,23.6,0,0,45.78,53.6.14-.16L362.17,429a27.1,27.1,0,0,0,39.73,1.51L429,403.37a27.1,27.1,0,0,0-.68-39l-132-123.11L333.5,199.8A68.25,68.25,0,0,0,420.3,191.74Z"/></svg>